<mxfile host="app.diagrams.net" agent="Mozilla/5.0 (Windows NT 10.0; Win64; x64) AppleWebKit/537.36 (KHTML, like Gecko) Chrome/131.0.0.0 Safari/537.36" version="25.0.3">
  <diagram name="Trang-1" id="LnVWqfPVO4wN8yDXHh2U">
    <mxGraphModel dx="880" dy="468" grid="1" gridSize="10" guides="1" tooltips="1" connect="1" arrows="1" fold="1" page="1" pageScale="1" pageWidth="827" pageHeight="1169" math="0" shadow="0">
      <root>
        <mxCell id="0" />
        <mxCell id="1" parent="0" />
        <mxCell id="twLZLue-bbyJat7kN_II-11" style="edgeStyle=orthogonalEdgeStyle;rounded=0;orthogonalLoop=1;jettySize=auto;html=1;exitX=1;exitY=0.5;exitDx=0;exitDy=0;entryX=0;entryY=0.5;entryDx=0;entryDy=0;" edge="1" parent="1" source="twLZLue-bbyJat7kN_II-1" target="twLZLue-bbyJat7kN_II-2">
          <mxGeometry relative="1" as="geometry" />
        </mxCell>
        <mxCell id="twLZLue-bbyJat7kN_II-1" value="Start" style="rounded=0;whiteSpace=wrap;html=1;" vertex="1" parent="1">
          <mxGeometry x="10" y="180" width="120" height="60" as="geometry" />
        </mxCell>
        <mxCell id="twLZLue-bbyJat7kN_II-12" style="edgeStyle=orthogonalEdgeStyle;rounded=0;orthogonalLoop=1;jettySize=auto;html=1;exitX=1;exitY=0.5;exitDx=0;exitDy=0;entryX=0;entryY=0.5;entryDx=0;entryDy=0;" edge="1" parent="1" source="twLZLue-bbyJat7kN_II-2" target="twLZLue-bbyJat7kN_II-3">
          <mxGeometry relative="1" as="geometry" />
        </mxCell>
        <mxCell id="twLZLue-bbyJat7kN_II-17" style="edgeStyle=orthogonalEdgeStyle;rounded=0;orthogonalLoop=1;jettySize=auto;html=1;exitX=1;exitY=0.5;exitDx=0;exitDy=0;entryX=0;entryY=0.5;entryDx=0;entryDy=0;" edge="1" parent="1" source="twLZLue-bbyJat7kN_II-2" target="twLZLue-bbyJat7kN_II-4">
          <mxGeometry relative="1" as="geometry" />
        </mxCell>
        <mxCell id="twLZLue-bbyJat7kN_II-2" value="a,b" style="rounded=0;whiteSpace=wrap;html=1;" vertex="1" parent="1">
          <mxGeometry x="170" y="180" width="120" height="60" as="geometry" />
        </mxCell>
        <mxCell id="twLZLue-bbyJat7kN_II-14" style="edgeStyle=orthogonalEdgeStyle;rounded=0;orthogonalLoop=1;jettySize=auto;html=1;exitX=1;exitY=0.5;exitDx=0;exitDy=0;entryX=0;entryY=0.5;entryDx=0;entryDy=0;" edge="1" parent="1" source="twLZLue-bbyJat7kN_II-3" target="twLZLue-bbyJat7kN_II-6">
          <mxGeometry relative="1" as="geometry" />
        </mxCell>
        <mxCell id="twLZLue-bbyJat7kN_II-16" style="edgeStyle=orthogonalEdgeStyle;rounded=0;orthogonalLoop=1;jettySize=auto;html=1;exitX=1;exitY=0.5;exitDx=0;exitDy=0;entryX=0;entryY=0.5;entryDx=0;entryDy=0;" edge="1" parent="1" source="twLZLue-bbyJat7kN_II-3" target="twLZLue-bbyJat7kN_II-5">
          <mxGeometry relative="1" as="geometry" />
        </mxCell>
        <mxCell id="twLZLue-bbyJat7kN_II-3" value="a==0" style="rhombus;whiteSpace=wrap;html=1;" vertex="1" parent="1">
          <mxGeometry x="333.5" y="120" width="80" height="80" as="geometry" />
        </mxCell>
        <mxCell id="twLZLue-bbyJat7kN_II-18" style="edgeStyle=orthogonalEdgeStyle;rounded=0;orthogonalLoop=1;jettySize=auto;html=1;exitX=1;exitY=0.5;exitDx=0;exitDy=0;entryX=0;entryY=0.5;entryDx=0;entryDy=0;" edge="1" parent="1" source="twLZLue-bbyJat7kN_II-4" target="twLZLue-bbyJat7kN_II-9">
          <mxGeometry relative="1" as="geometry" />
        </mxCell>
        <mxCell id="twLZLue-bbyJat7kN_II-4" value="a!=0" style="rhombus;whiteSpace=wrap;html=1;" vertex="1" parent="1">
          <mxGeometry x="333.5" y="220" width="80" height="80" as="geometry" />
        </mxCell>
        <mxCell id="twLZLue-bbyJat7kN_II-20" style="edgeStyle=orthogonalEdgeStyle;rounded=0;orthogonalLoop=1;jettySize=auto;html=1;exitX=1;exitY=0.5;exitDx=0;exitDy=0;entryX=0;entryY=0.5;entryDx=0;entryDy=0;" edge="1" parent="1" source="twLZLue-bbyJat7kN_II-5" target="twLZLue-bbyJat7kN_II-7">
          <mxGeometry relative="1" as="geometry" />
        </mxCell>
        <mxCell id="twLZLue-bbyJat7kN_II-5" value="b==0" style="rhombus;whiteSpace=wrap;html=1;" vertex="1" parent="1">
          <mxGeometry x="460" y="20" width="80" height="80" as="geometry" />
        </mxCell>
        <mxCell id="twLZLue-bbyJat7kN_II-21" style="edgeStyle=orthogonalEdgeStyle;rounded=0;orthogonalLoop=1;jettySize=auto;html=1;exitX=1;exitY=0.5;exitDx=0;exitDy=0;entryX=0;entryY=0.5;entryDx=0;entryDy=0;" edge="1" parent="1" source="twLZLue-bbyJat7kN_II-6" target="twLZLue-bbyJat7kN_II-8">
          <mxGeometry relative="1" as="geometry" />
        </mxCell>
        <mxCell id="twLZLue-bbyJat7kN_II-6" value="b!=0" style="rhombus;whiteSpace=wrap;html=1;" vertex="1" parent="1">
          <mxGeometry x="460" y="120" width="80" height="80" as="geometry" />
        </mxCell>
        <mxCell id="twLZLue-bbyJat7kN_II-22" style="edgeStyle=orthogonalEdgeStyle;rounded=0;orthogonalLoop=1;jettySize=auto;html=1;exitX=1;exitY=0.5;exitDx=0;exitDy=0;entryX=0;entryY=0.5;entryDx=0;entryDy=0;" edge="1" parent="1" source="twLZLue-bbyJat7kN_II-7" target="twLZLue-bbyJat7kN_II-10">
          <mxGeometry relative="1" as="geometry" />
        </mxCell>
        <mxCell id="twLZLue-bbyJat7kN_II-7" value="Vô số nghiệm" style="rounded=0;whiteSpace=wrap;html=1;" vertex="1" parent="1">
          <mxGeometry x="570" y="30" width="120" height="60" as="geometry" />
        </mxCell>
        <mxCell id="twLZLue-bbyJat7kN_II-23" style="edgeStyle=orthogonalEdgeStyle;rounded=0;orthogonalLoop=1;jettySize=auto;html=1;exitX=1;exitY=0.5;exitDx=0;exitDy=0;" edge="1" parent="1" source="twLZLue-bbyJat7kN_II-8" target="twLZLue-bbyJat7kN_II-10">
          <mxGeometry relative="1" as="geometry" />
        </mxCell>
        <mxCell id="twLZLue-bbyJat7kN_II-8" value="Vô nghiệm" style="rounded=0;whiteSpace=wrap;html=1;" vertex="1" parent="1">
          <mxGeometry x="570" y="130" width="120" height="60" as="geometry" />
        </mxCell>
        <mxCell id="twLZLue-bbyJat7kN_II-26" style="edgeStyle=orthogonalEdgeStyle;rounded=0;orthogonalLoop=1;jettySize=auto;html=1;exitX=0.5;exitY=1;exitDx=0;exitDy=0;entryX=0.5;entryY=0;entryDx=0;entryDy=0;" edge="1" parent="1" source="twLZLue-bbyJat7kN_II-9" target="twLZLue-bbyJat7kN_II-25">
          <mxGeometry relative="1" as="geometry" />
        </mxCell>
        <mxCell id="twLZLue-bbyJat7kN_II-9" value="x=-b/a" style="rounded=0;whiteSpace=wrap;html=1;" vertex="1" parent="1">
          <mxGeometry x="570" y="230" width="120" height="60" as="geometry" />
        </mxCell>
        <mxCell id="twLZLue-bbyJat7kN_II-10" value="End" style="rounded=0;whiteSpace=wrap;html=1;" vertex="1" parent="1">
          <mxGeometry x="740" y="180" width="120" height="60" as="geometry" />
        </mxCell>
        <mxCell id="twLZLue-bbyJat7kN_II-29" style="edgeStyle=orthogonalEdgeStyle;rounded=0;orthogonalLoop=1;jettySize=auto;html=1;exitX=1;exitY=0.5;exitDx=0;exitDy=0;entryX=0;entryY=0.5;entryDx=0;entryDy=0;" edge="1" parent="1" source="twLZLue-bbyJat7kN_II-25" target="twLZLue-bbyJat7kN_II-10">
          <mxGeometry relative="1" as="geometry" />
        </mxCell>
        <mxCell id="twLZLue-bbyJat7kN_II-25" value="x" style="rounded=0;whiteSpace=wrap;html=1;" vertex="1" parent="1">
          <mxGeometry x="570" y="320" width="120" height="60" as="geometry" />
        </mxCell>
      </root>
    </mxGraphModel>
  </diagram>
</mxfile>
